<svg xmlns="http://www.w3.org/2000/svg" xmlns:xlink="http://www.w3.org/1999/xlink"
    aria-hidden="true" role="img" font-size="1.375rem" class="iconify iconify--material-symbols"
    width="1em" height="1em" viewBox="0 0 24 24">
    <path fill="currentColor"
        d="M6 14h3.075l4.975-5q.225-.225.338-.513t.112-.562q0-.275-.113-.537t-.312-.488l-.925-.95q-.225-.225-.5-.338t-.575-.112q-.275 0-.55.113t-.5.337L6 10.925V14Zm6.05-5.1l-.95-.925l.975-.975l.925.95l-.95.95ZM11.2 14H18v-2h-4.8l-2 2ZM2 22V4q0-.825.588-1.413T4 2h16q.825 0 1.413.588T22 4v12q0 .825-.588 1.413T20 18H6l-4 4Z"></path>
</svg>